<?xml version="1.0" encoding="utf-8"?>
<!-- Generator: Adobe Illustrator 23.1.0, SVG Export Plug-In . SVG Version: 6.00 Build 0)  -->
<svg version="1.1" id="Layer_1" xmlns="http://www.w3.org/2000/svg" xmlns:xlink="http://www.w3.org/1999/xlink" x="0px" y="0px"
	 viewBox="0 0 2146 744" style="enable-background:new 0 0 2146 744;" xml:space="preserve">
<style type="text/css">
	.st0{filter:url(#Adobe_OpacityMaskFilter);}
	.st1{fill-rule:evenodd;clip-rule:evenodd;fill:#FFFFFF;}
	.st2{mask:url(#b_1_);}
	.st3{fill-rule:evenodd;clip-rule:evenodd;fill:url(#SVGID_1_);}
	.st4{filter:url(#e);}
	.st5{fill:url(#SVGID_2_);}
	.st6{filter:url(#g);}
	.st7{fill-rule:evenodd;clip-rule:evenodd;fill:url(#SVGID_3_);}
</style>
<filter  filterUnits="objectBoundingBox" height="170.3%" id="g" width="165.1%" x="-32.5%" y="-35.1%">
	<feGaussianBlur  in="SourceGraphic" stdDeviation="50"></feGaussianBlur>
</filter>
<filter  filterUnits="objectBoundingBox" height="187%" id="e" width="145.2%" x="-22.6%" y="-43.5%">
	<feGaussianBlur  in="SourceGraphic" stdDeviation="50"></feGaussianBlur>
</filter>
<g transform="translate(-140 -177)">
	<defs>
		<filter id="Adobe_OpacityMaskFilter" filterUnits="userSpaceOnUse" x="0" y="0" width="2440" height="1273.9">
			<feColorMatrix  type="matrix" values="1 0 0 0 0  0 1 0 0 0  0 0 1 0 0  0 0 0 1 0"/>
		</filter>
	</defs>
	<mask maskUnits="userSpaceOnUse" x="0" y="0" width="2440" height="1273.9" id="b_1_">
		<g class="st0">
			<path id="a_1_" class="st1" d="M0,0h2440v921H0V0z"/>
		</g>
	</mask>
	<g class="st2">
		
			<radialGradient id="SVGID_1_" cx="361.057" cy="2248.8171" r="0.7763" gradientTransform="matrix(0 -921 -921.0024 0 2072385.875 333454.5)" gradientUnits="userSpaceOnUse">
			<stop  offset="0" style="stop-color:#E9D5FF"/>
			<stop  offset="2.780794e-02" style="stop-color:#C0BCFD"/>
			<stop  offset="6.239708e-02" style="stop-color:#94A1FC"/>
			<stop  offset="9.862240e-02" style="stop-color:#6F89FA"/>
			<stop  offset="0.1361" style="stop-color:#5076F9"/>
			<stop  offset="0.1752" style="stop-color:#3868F8"/>
			<stop  offset="0.2166" style="stop-color:#275DF8"/>
			<stop  offset="0.2619" style="stop-color:#1D57F7"/>
			<stop  offset="0.3186" style="stop-color:#1A55F7"/>
			<stop  offset="1" style="stop-color:#0F172A;stop-opacity:0"/>
		</radialGradient>
		<path class="st3" d="M0,0h2440v921H0V0z"/>
		<g class="st4">
			
				<linearGradient id="SVGID_2_" gradientUnits="userSpaceOnUse" x1="362.1297" y1="2245.6008" x2="362.1979" y2="2244.7478" gradientTransform="matrix(664.0001 0 0 -344.9996 -238633.0469 775552.5)">
				<stop  offset="0" style="stop-color:#1A55F7"/>
				<stop  offset="1" style="stop-color:#1A55F7"/>
			</linearGradient>
			<path class="st5" d="M1975.7,781.8c-3.7-3-8.8-3.6-13-1.6c-4.3,2-7,6.4-7,11.1v98.6h-430.4c-6.8,0-12.3,5.5-12.3,12.3v98.6
				c0,6.8,5.5,12.3,12.3,12.3h430.4v98.6c0,4.8,2.7,9.1,7,11.1c4.3,2,9.4,1.4,13-1.6l196.7-160.2c2.9-2.3,4.5-5.9,4.5-9.6
				c0-3.7-1.7-7.2-4.5-9.6L1975.7,781.8L1975.7,781.8z"/>
		</g>
		<g class="st6">
			
				<linearGradient id="SVGID_3_" gradientUnits="userSpaceOnUse" x1="361.8938" y1="2246.3806" x2="362.1977" y2="2245.5261" gradientTransform="matrix(461 0 0 -427 -165747 959513.4375)">
				<stop  offset="0" style="stop-color:#1A55F7"/>
				<stop  offset="1" style="stop-color:#1A55F7;stop-opacity:0"/>
			</linearGradient>
			<polygon class="st7" points="913,274 1374,643 1090,701 			"/>
		</g>
	</g>
</g>
</svg>
