<svg xmlns="http://www.w3.org/2000/svg" viewBox="0 0 30.54 16.11"><defs><style>.cls-1{fill:#fff;}</style></defs><title>Asset 1</title><g id="Layer_2" data-name="Layer 2"><g id="Layer_1-2" data-name="Layer 1"><path class="cls-1" d="M.8,10.24V1.75H7.21v2H3v1.3H6.47V7H3V8.24H7.21v2Z" transform="translate(-0.8 -1.64)"/><path class="cls-1" d="M8.35,10.24V1.75h6.28v2H10.52V5.31h3.39v2H10.52v2.94Z" transform="translate(-0.8 -1.64)"/><path class="cls-1" d="M14.17,10.24l3.41-8.49h2.21l3.37,8.49H20.82L20.4,9H16.93l-.43,1.2Zm3.45-3.15h2.1l-1-2.92Z" transform="translate(-0.8 -1.64)"/><path class="cls-1" d="M27.3,10.34A4.73,4.73,0,0,1,25,9.82a3.59,3.59,0,0,1-1.45-1.49A4.86,4.86,0,0,1,23.08,6,4.93,4.93,0,0,1,23.6,3.7a3.72,3.72,0,0,1,1.46-1.53,4.81,4.81,0,0,1,4-.17,3.16,3.16,0,0,1,1.34,1.08A3.61,3.61,0,0,1,31,4.9H29A1.64,1.64,0,0,0,28.44,4a1.72,1.72,0,0,0-1.1-.32,1.88,1.88,0,0,0-1.2.34,1.72,1.72,0,0,0-.63.85A3,3,0,0,0,25.32,6,3.22,3.22,0,0,0,25.52,7a1.93,1.93,0,0,0,.65.89,1.87,1.87,0,0,0,1.2.36,2.07,2.07,0,0,0,.79-.14,1.36,1.36,0,0,0,.56-.41A1.57,1.57,0,0,0,29,7.09h2.1a3.24,3.24,0,0,1-.63,1.8A3.31,3.31,0,0,1,29.11,10,4.6,4.6,0,0,1,27.3,10.34Z" transform="translate(-0.8 -1.64)"/><path class="cls-1" d="M6.25,13.56l-.28,0H5.3v.77H6l.25,0a.75.75,0,0,0,.18-.08.33.33,0,0,0,.11-.13.34.34,0,0,0,0-.18.32.32,0,0,0-.07-.23A.47.47,0,0,0,6.25,13.56Zm19.68,1.49h1l-.48-1.33Zm2.26-3.77H4A3.16,3.16,0,0,0,.88,14.43v.16A3.16,3.16,0,0,0,4,17.74H28.19a3.16,3.16,0,0,0,3.16-3.15v-.16A3.16,3.16,0,0,0,28.19,11.28ZM6.52,16.49l-.74-1.31H5.3v1.31h-1V12.62H6a2.44,2.44,0,0,1,.53.05,1.48,1.48,0,0,1,.51.18,1,1,0,0,1,.38.39,1.33,1.33,0,0,1,.14.65,1.27,1.27,0,0,1-.08.48,1.15,1.15,0,0,1-.24.39,1.27,1.27,0,0,1-.44.27l.9,1.46Zm5.05-1.78a2.48,2.48,0,0,1-.18,1,1.35,1.35,0,0,1-.56.62,1.91,1.91,0,0,1-.95.2,2,2,0,0,1-1-.2,1.28,1.28,0,0,1-.56-.61,2.53,2.53,0,0,1-.18-1V12.62h1v2.15a1.34,1.34,0,0,0,.06.4.71.71,0,0,0,.22.32.75.75,0,0,0,.45.12.6.6,0,0,0,.43-.13.57.57,0,0,0,.2-.32,1.32,1.32,0,0,0,.06-.39V12.62h1Zm4.09,1.78h-1V15H13.26v1.46h-1V12.62h1v1.5h1.41v-1.5h1Zm4.1-1.78a2.48,2.48,0,0,1-.18,1,1.28,1.28,0,0,1-.55.62,2,2,0,0,1-1,.2,2,2,0,0,1-1-.2,1.28,1.28,0,0,1-.56-.61,2.37,2.37,0,0,1-.19-1V12.62h1v2.15a1.34,1.34,0,0,0,.07.4.64.64,0,0,0,.22.32.7.7,0,0,0,.44.12.64.64,0,0,0,.44-.13.63.63,0,0,0,.2-.32,1.74,1.74,0,0,0,.05-.39V12.62h1ZM24,16.49h-.9l-1.66-2.18v2.18h-1V12.62h.92L23,14.83V12.62h1Zm3.37,0-.19-.55H25.62l-.2.55H24.36l1.55-3.87h1l1.54,3.87Z" transform="translate(-0.8 -1.64)"/></g></g></svg>