<svg xmlns="http://www.w3.org/2000/svg" viewBox="0 0 21.7 21"><defs><style>.cls-1{fill:#fff;}</style></defs><title>society4</title><g id="Layer_2" data-name="Layer 2"><g id="Layer_1-2" data-name="Layer 1"><path class="cls-1" d="M6.73,15,3.55,17.34l2.56-3.06a6.84,6.84,0,0,1-1.29-3.35L.88,10.49c1.3-.17,2.6-.3,3.91-.44A6.86,6.86,0,0,1,6.15,6.13L3.67,2.81,6.74,5.44,7,5.19a6.92,6.92,0,0,1,3.38-1.72c.12,0,.11,0,.13-.14.08-.78.17-1.56.26-2.34,0-.31.07-.61.1-.92a.36.36,0,0,1,0-.07l.38,3.35a7.85,7.85,0,0,1,1.37,0V5.6a5.33,5.33,0,0,0-1.13-.08l.31,2.72c.33-.22.63-.46.94-.68l.94-.69.93-.68.92-.68.94-.69.93-.68c.31-.23.62-.46.95-.67L13.12,9.58l8.06.9c-.9.12-1.81.21-2.71.31l-2.73.29L13,11.37c.06.11.14.2.2.29l.22.29.21.28.22.29H13.2c-.17,0-.17,0-.17.17v.12h0l-1.11-1.2c0,.15,0,.27-.05.39l-.06.53a.19.19,0,0,0,.09.21L13,13.7c.05,0,.1.07.06.15l-1.25-1.07-.25,2.16a5.28,5.28,0,0,0,1.13-.08v2.19a3.71,3.71,0,0,1-.67.07h-.7l-.15,1.35h.2A10,10,0,0,0,13.8,18a12.13,12.13,0,0,0,1.83-.75.54.54,0,0,1,.25-.06,2.26,2.26,0,0,0,.26,0,.33.33,0,0,0,0,.06A3.26,3.26,0,0,0,17,18.47a6.06,6.06,0,0,0,1.56,1.15,11.25,11.25,0,0,0,2.67,1l.26.06.25.05V21C21.6,21,.13,21,0,21V20.7H.06a4.45,4.45,0,0,0,1.58-.27,8.62,8.62,0,0,0,3.61-2.19c.23-.22.43-.45.64-.69s.16-.21.26-.34h.23l.1,0a7.62,7.62,0,0,0,2.52,1,9.84,9.84,0,0,0,1.43.2h.13A9.52,9.52,0,0,0,10.42,17a6.84,6.84,0,0,1-2-.7A7.07,7.07,0,0,1,6.73,15Zm8.07,2.92v2.75h1s0,0,0,0V17.5h0ZM11,8.86h0l.7-.51s0-.07,0-.12,0-.25-.05-.37c-.07-.7-.15-1.39-.23-2.09l-.24-2.13c-.08-.69-.15-1.38-.23-2.07a1,1,0,0,0,0-.11ZM12,9.45l.16,0c.23,0,.47,0,.7.09a.22.22,0,0,0,.22-.09l4.25-5,.08-.09C15.6,6,13.85,7.76,12,9.45ZM4.76,3.86h0L9.83,9.3a.65.65,0,0,0,0-.11c0-.26.05-.52.09-.77a.23.23,0,0,0-.09-.22l-5-4.26ZM4.48,16.34l0,0C6.23,14.74,8,13.12,9.7,11.47l-.9-.1a.24.24,0,0,0-.25.1L5.14,15.55Zm15.24-5.76c-1.25-.05-7.23-.06-7.33,0l.06.09.42.58a.18.18,0,0,0,.18.07l1.5-.16L16.07,11l1.5-.16,1.79-.19Zm-8.93,1.47a.62.62,0,0,0-.12.08l-.55.4c-.08.05-.11.1-.09.18a.11.11,0,0,1,0,0c.1.94.21,1.88.31,2.82s.19,1.74.29,2.61l0,.28h.13C10.8,16.33,10.8,14.2,10.79,12.05ZM8.3,20.68V18.37L7.25,18c0,.31,0,2.61,0,2.7Zm-6-10.29v0h.09l4.88,0H9.33v0l-.48-.66a.08.08,0,0,0-.1,0l-.47,0-1.76.18-1.78.19-2.07.22ZM13.77,18.3v2.39h1V18Zm-7.71-.54,0,0c-.27.28-.54.57-.81.84a.17.17,0,0,0,0,.15v1.78a.41.41,0,0,0,0,.11h.9ZM8.41,6.88,10,8.2l.27-2.44A4.71,4.71,0,0,0,8.41,6.88Zm5.29,13.8V18.32l-1,.25c0,.7,0,1.41,0,2.11ZM9.34,18.61l-1-.22c0,.14,0,2.2,0,2.29h.95ZM7.18,20.68V17.94l-.7-.38v3.12Zm4.46-2v2h1v-2.1l-1,.12Zm-.77-7.19a1,1,0,0,0,1.05-1,1.06,1.06,0,1,0-2.11,0A1,1,0,0,0,10.87,11.52ZM17,20.68s0-.07,0-.1V19a.2.2,0,0,0-.07-.15,4.78,4.78,0,0,1-.69-.8L16.22,18c0,.22,0,2.61,0,2.7Zm-6.71,0V18.73l-.89-.11c0,.17,0,2,0,2.06Zm-.14-6c0-.34-.08-.67-.11-1s-.07-.66-.12-1l-1.41,1A4.35,4.35,0,0,0,10.17,14.67ZM7.56,8a4,4,0,0,0-.51,1.78l1.7-.18ZM5.06,20.68c0-.14,0-1.8,0-1.89l0,0-.85.66a.16.16,0,0,0-.06.14v1s0,.07,0,.11Zm13.09,0a.38.38,0,0,0,0-.1v-.76a.14.14,0,0,0-.09-.16,5.9,5.9,0,0,1-.87-.61L17.12,19a15.87,15.87,0,0,0,0,1.69Zm-6.59,0v-2l-.47,0-.22,1.95Zm-4-8.18,1-1.14a11,11,0,0,0-1.44-.15A4.48,4.48,0,0,0,7.59,12.5ZM3,20.68H4a6.61,6.61,0,0,0,0-1.09l-1,.6Zm7.83,0a1.08,1.08,0,0,0,0-.36l-.12-1.07-.06-.52h-.23c0,.16,0,1.86,0,1.95Zm7.42-.91c0,.31,0,.61,0,.92h1v-.45Zm-16.48.91a7.74,7.74,0,0,0,1.15,0v-.43Zm17.53,0h1.16l-1.16-.4ZM10.8,18.74h-.06l0,0,.09.77h0Z"/><path class="cls-1" d="M18.31,15.5h1.07V16a2.46,2.46,0,0,0,0,.26.17.17,0,0,0,.22.14.17.17,0,0,0,.14-.1.18.18,0,0,0,0-.14,3.39,3.39,0,0,0,0-.45.32.32,0,0,0-.14-.25l-.41-.29-.5-.34a1.07,1.07,0,0,1-.44-.75,2.32,2.32,0,0,1,0-.79.82.82,0,0,1,.43-.59,1.49,1.49,0,0,1,.59-.17,2.12,2.12,0,0,1,.83.09l.15,0a.75.75,0,0,1,.48.64,4.5,4.5,0,0,1,0,.64H19.74a.85.85,0,0,0,0-.16c0-.12,0-.25,0-.37a.14.14,0,0,0-.13-.14.18.18,0,0,0-.19.07s0,.05,0,.08a.82.82,0,0,0,0,.49.42.42,0,0,0,.11.15l.25.17.64.42a1.12,1.12,0,0,1,.49.83,3.46,3.46,0,0,1,0,.91.74.74,0,0,1-.35.52,1.48,1.48,0,0,1-.67.22,1.83,1.83,0,0,1-.84-.08l-.3-.15a.81.81,0,0,1-.35-.5A3.61,3.61,0,0,1,18.31,15.5Z"/><path class="cls-1" d="M15.75,12.64h1.92v.87a2.38,2.38,0,0,1-.38,0h-.37v.85h.71v.85h-.7a6.31,6.31,0,0,0,0,1h.83v.87c-.09,0-1.88,0-2,0Z"/><path class="cls-1" d="M15.06,12.64v.88H14.3c0,.28,0,.55,0,.84.24,0,.48,0,.72,0v.84H14.3v1h.83v.88h-2V12.64Z"/><path class="cls-1" d="M14.4,13.62h.22a.16.16,0,0,1,.1.08c.21.27.41.54.61.82l.26.33a.31.31,0,0,1,.06.16c0,.19,0,.38,0,.57v.08l-.08-.08-.39-.41a.23.23,0,0,1-.06-.16c0-.19,0-.39,0-.58s0-.18-.17-.17H14.4Z"/><path class="cls-1" d="M16.93,17.19h.34s.07,0,.1.07c.16.2.31.41.47.62s.14.19.2.29l-1.12-1Z"/><path class="cls-1" d="M15.63,16.1l-.88-.75a.09.09,0,0,1,.13,0l.72.61S15.66,16,15.63,16.1Z"/><path class="cls-1" d="M10.87,9.79a.69.69,0,0,1,.67.68.68.68,0,1,1-.67-.68Zm.58.68a.59.59,0,1,0-.59.59A.58.58,0,0,0,11.45,10.47Z"/></g></g></svg>