<svg xmlns="http://www.w3.org/2000/svg" viewBox="0 0 90.33 21"><defs><style>.cls-1{fill:#fff;}</style></defs><title>society1</title><g id="Layer_2" data-name="Layer 2"><g id="Layer_1-2" data-name="Layer 1"><path class="cls-1" d="M84.43,0a1.81,1.81,0,0,1,0,.39,1.74,1.74,0,0,0,0,.39,2.12,2.12,0,0,1,.06.43,2.11,2.11,0,0,0,0,.35.32.32,0,0,1,0,.14l0,.25a.25.25,0,0,0,.11.16.52.52,0,0,1,.26.35.41.41,0,0,0,.15.27l1,.9.44.4a.09.09,0,0,1,0,.13l-.05.06a.19.19,0,0,0-.08.19v1a.2.2,0,0,0,.12.2l.11,0s0,0,.06,0a.1.1,0,0,1,0,.14l-.3.4-.13.18a.19.19,0,0,0,0,.16.34.34,0,0,0,0,.1.93.93,0,0,1,0,.33c0,.25,0,.5.05.74a2.87,2.87,0,0,0,0,.31s0,.06,0,.1l.06,1,0,.2a.51.51,0,0,1,0,.13l0,.45c0,.12,0,.24,0,.36a1.92,1.92,0,0,0,0,.41.15.15,0,0,1,0,.07c0,.27,0,.54.05.81,0,.11,0,.21,0,.32a.57.57,0,0,1,0,.13,3.85,3.85,0,0,1,0,.48c0,.18,0,.36.06.54a3.47,3.47,0,0,1,0,.72l0,0s0,0,0,0,0-.21,0-.32a1.29,1.29,0,0,0-.08-.38l0-.08c0-.17,0-.34,0-.51a.93.93,0,0,0,0-.24.19.19,0,0,1,0-.07c0-.19,0-.38,0-.57s0-.11,0-.16a5,5,0,0,1-.09-.66c0-.08,0-.16,0-.25a.3.3,0,0,1,0-.1,6.59,6.59,0,0,0-.1-.76.13.13,0,0,1,0-.06,4.42,4.42,0,0,0-.1-.73s0,0,0-.06a5.07,5.07,0,0,0-.1-.77s0,0,0-.06A5.9,5.9,0,0,0,86,7.22a.78.78,0,0,1,0-.16,2.89,2.89,0,0,0-.07-.49.2.2,0,0,0-.19-.18,2.06,2.06,0,0,1-.26,0,.11.11,0,0,0-.12.12c0,.11,0,.21,0,.32s0,.33,0,.5c0,.38,0,.77,0,1.16,0,.8,0,1.61,0,2.41,0,.48,0,1,0,1.44l0,1.09c0,.3,0,.6,0,.89,0,.55,0,1.1,0,1.65l0,1.78,0,.93a.27.27,0,0,0,0,.09.14.14,0,0,1,0,.18h.08c.61-.14,1.21-.28,1.81-.46s1-.3,1.41-.48l.81-.34.54-.25a.12.12,0,0,1,.1,0l-.09.06a14.67,14.67,0,0,1-1.33.76c-.32.16-.63.32-1,.47s-.66.31-1,.44-.76.29-1.14.43a.4.4,0,0,0-.16.08s0,0-.07,0a3.33,3.33,0,0,0-.6.16c-.36.12-.73.22-1.09.32-.55.14-1.1.27-1.65.37q-1.21.24-2.46.36c-.44.05-.89.08-1.33.1-.75,0-1.49.05-2.24,0-.58,0-1.16,0-1.74-.11-.39,0-.79-.07-1.18-.12-.54-.06-1.09-.15-1.63-.24s-1.3-.26-1.94-.39l-1.8-.37-1.66-.35-1.21-.27-1.7-.37-1.59-.35-1.27-.26-2.12-.41-1.17-.2-1.54-.22-1-.1-.78-.07c-.34,0-.67-.05-1-.06-.73,0-1.46,0-2.19,0-.4,0-.8,0-1.19.06s-.93.1-1.39.16-.79.11-1.19.18c-.71.12-1.41.27-2.11.45-.43.11-.86.24-1.29.36l-.47.14-.1,0s0-.06,0-.08a2.57,2.57,0,0,1,.35-.39,6.16,6.16,0,0,1,1.81-1.12,11.68,11.68,0,0,1,2-.65c.3-.07.6-.14.91-.19l1.3-.19c.53-.07,1-.1,1.58-.14l.76,0h1.46c.3,0,.59,0,.89,0l1.79.1,1.22.1,1,.1,1.13.14c.44.05.87.11,1.3.18l1.29.19,1.1.2c.17,0,.34.05.51.09l1,.19.33.06,1,.22,1.13.23.5.11.85.19,1.14.27,2,.48c.55.12,1.1.24,1.65.34s1,.19,1.57.27.83.1,1.25.15l.31,0a.79.79,0,0,0,.22,0l.26,0a.3.3,0,0,0,.25-.09.11.11,0,0,1,.12,0l0,0a.12.12,0,0,0,.17,0L77.4,19l.11-.11a.17.17,0,0,1,.14,0,2.5,2.5,0,0,1,.38.06.55.55,0,0,0,.18,0,.26.26,0,0,0,.2-.06l.28-.17a.43.43,0,0,1,.18-.06l.3,0a.6.6,0,0,1,.3.06l.16.07a.2.2,0,0,0,.21,0c.1-.05.2-.09.3-.15a.42.42,0,0,0,.17-.18.62.62,0,0,1,.25-.23l.36-.15a.7.7,0,0,1,.14,0h.24a.12.12,0,0,0,.13-.13,5.05,5.05,0,0,0,.07-.68,1.94,1.94,0,0,1,0-.24c0-.35.09-.7.1-1.05a4,4,0,0,1,.07-.59s0-.06,0-.09c0-.41.08-.81.12-1.22a1.28,1.28,0,0,1,0-.19,1.84,1.84,0,0,1,0-.33,2,2,0,0,0,0-.24c0-.23,0-.46,0-.69,0,0,0-.06,0-.1a1.6,1.6,0,0,0,0-.23c0-.26.05-.53.06-.8a.06.06,0,0,0,0,0,8.47,8.47,0,0,0,.1-1l0-.18c0-.12,0-.23,0-.34a5.06,5.06,0,0,1,0-.68c.07-.36,0-.72.1-1.07l0-.17c0-.15,0-.3,0-.45l0-.5c0-.12,0-.23,0-.35a.39.39,0,0,0-.1-.27L82.07,6a1.59,1.59,0,0,0-.13-.13.2.2,0,0,1,0-.09s0-.08,0-.1a1.33,1.33,0,0,1,.21-.09.2.2,0,0,0,.12-.21c0-.22,0-.44,0-.66V4.4a.21.21,0,0,0-.07-.18h0c-.09-.1-.09-.12,0-.21l.71-.67.65-.6a.44.44,0,0,0,.15-.26A.5.5,0,0,1,84,2.11a.28.28,0,0,0,.12-.18s0-.06,0-.1a1.67,1.67,0,0,1,0-.31.82.82,0,0,0,0-.22,3.47,3.47,0,0,1,.08-.55c0-.1,0-.21,0-.31l0-.31A.15.15,0,0,1,84.43,0ZM85,4.6h0V4c0-.08,0-.11-.11-.12h0a4.61,4.61,0,0,0-.83,0h-.08a.09.09,0,0,0-.08.1s0,0,0,.06v1s0,.06,0,.09a.11.11,0,0,0,.13.1h.16a4,4,0,0,1,.69,0A.12.12,0,0,0,85,5.16V4.6Zm-1.54,0h0V4.1c0-.07,0-.1-.13-.09L83.2,4a.26.26,0,0,0-.15,0,.67.67,0,0,1-.24.07.17.17,0,0,0-.15.15v1a.08.08,0,0,0,.09.08l.08,0a1.21,1.21,0,0,1,.46,0h0s.06,0,.09-.05a.17.17,0,0,0,0-.12Zm1.91,0h0v.53c0,.09,0,.13.11.15l.5.09c.11,0,.14,0,.15-.12V4.37a.41.41,0,0,0,0-.11A.14.14,0,0,0,86,4.14a.67.67,0,0,1-.19,0A1.43,1.43,0,0,0,85.46,4a.09.09,0,0,0-.11.08v.58ZM83.86,8.53h0c0-.16,0-.33,0-.49s0-.1,0-.15a.36.36,0,0,0-.11-.23c-.11-.12-.19-.08-.28,0l0,.07a.84.84,0,0,0-.07.35v.82a.85.85,0,0,0,0,.16c0,.09,0,.12.12.12h.29a.1.1,0,0,0,.11-.09.34.34,0,0,0,0-.1ZM86.14,4c.06,0,.09-.05.06-.09a.19.19,0,0,0-.06-.07l-.6-.57-.4-.38A.19.19,0,0,0,85,2.81c-.05,0-.07,0-.06.08a2.57,2.57,0,0,1,.17.66.22.22,0,0,0,.18.2c.2.06.41.09.61.17l.16.05Z"/><path class="cls-1" d="M31.32,7.21s0,.06,0,.1V8.74s0,0,0,.08a.43.43,0,0,1-.19,0H27.24l-.07,0s0,0,0,.06v1.66s0,0,0,.06l.09,0h3.59a.65.65,0,0,1,.19,0s0,.06,0,.09V12.2a.34.34,0,0,1,0,.09l-.08,0H27.22s0,0-.06.06V14a.45.45,0,0,0,0,.11l.08,0H31.3c.05,0,0,.1,0,.15v1.35a.49.49,0,0,1,0,.12l-.09,0H24.69a.44.44,0,0,1,0-.1V7.41a.47.47,0,0,1,0-.2l.07,0h6.36A.46.46,0,0,1,31.32,7.21Z"/><path class="cls-1" d="M23,10.68c0,.13,0,1.12,0,1.52a.19.19,0,0,1,0,.08.21.21,0,0,1-.15,0H19.44a.41.41,0,0,0-.19,0,.32.32,0,0,0,0,.17V14s0,.05,0,.09h4a.65.65,0,0,1,.19,0s0,.08,0,.12a13.84,13.84,0,0,1,0,1.49l-.08,0H17a.52.52,0,0,1-.21,0s0,0,0-.08a.48.48,0,0,1,0-.12V7.22l.09,0h6.34a.5.5,0,0,1,.21,0s0,.06,0,.09V8.73a.34.34,0,0,1,0,.09H19.44a.53.53,0,0,0-.18,0,.16.16,0,0,0,0,.13v1.6c0,.06,0,.08.09.08h3.45A.68.68,0,0,1,23,10.68Z"/><path class="cls-1" d="M35.11,10.66h3.83a.11.11,0,0,1,0,.11v1.36a.76.76,0,0,1,0,.15l-.09,0H35.12a.16.16,0,0,0,0,.09s0,0,0,.07V14a.62.62,0,0,0,0,.13h4.13a.32.32,0,0,1,0,.09v1.45a.24.24,0,0,1,0,.08l-.08,0H32.77a.92.92,0,0,1,0-.09V7.42a.5.5,0,0,1,0-.21l.08,0h6.38a.2.2,0,0,1,0,.16V8.74s0,0,0,.08h-4a.55.55,0,0,0-.18,0,.26.26,0,0,0,0,.15A12.14,12.14,0,0,0,35.11,10.66Z"/><path class="cls-1" d="M13.14,7.21c.15,0,1.41,0,2.2,0h.12a.24.24,0,0,1,0,.08v8.3a.43.43,0,0,1,0,.19h-.09c-.39,0-2.09,0-2.22,0a.19.19,0,0,1,0-.07V7.4A.62.62,0,0,1,13.14,7.21Z"/><path class="cls-1" d="M5.77,17H5.71a.15.15,0,0,1-.17-.09.43.43,0,0,0-.2-.2s0,0,0-.06a6.31,6.31,0,0,0-.6-.86l-.28-.37a.46.46,0,0,0-.12-.12A.86.86,0,0,1,4,15.09a17.67,17.67,0,0,0-1.81-1.86,16.36,16.36,0,0,0-2-1.56A.8.8,0,0,1,0,11.45a.18.18,0,0,1,0-.21s0-.07,0-.1A.28.28,0,0,1,.26,11a.61.61,0,0,0,.18-.09A15.58,15.58,0,0,0,2.25,9.43,24.7,24.7,0,0,0,4.7,6.87l.16-.22.54-.87a.3.3,0,0,1,.2-.15l.08,0a.22.22,0,0,1,.16,0l.08,0a.12.12,0,0,1,.09.1l0,.06a5.91,5.91,0,0,0,.49.63A8.06,8.06,0,0,1,7.4,7.53a2.44,2.44,0,0,0,.33.39l.72.72.13.12c.64.55,1.29,1.09,2,1.61l.67.49a1.72,1.72,0,0,1,.27.27l0,.06a.27.27,0,0,1,0,.36,1.07,1.07,0,0,1-.16.14c-.43.28-.83.59-1.23.91a19.78,19.78,0,0,0-2.28,2.1,20.86,20.86,0,0,0-1.71,2.07c0,.06-.09.11-.13.16A.2.2,0,0,1,5.77,17Zm4.3-5.66a.6.6,0,0,0-.16-.47l-.14-.19c-.22-.28-.43-.57-.65-.84A14.71,14.71,0,0,0,7.36,8.1c-.28-.24-.58-.47-.86-.72a1.16,1.16,0,0,0-.66-.31.65.65,0,0,0-.55.14l-.64.53A2.62,2.62,0,0,1,4.4,8a.61.61,0,0,0-.23.22.27.27,0,0,1-.08.07l-.7.64a9.73,9.73,0,0,0-1.34,1.53,1.71,1.71,0,0,1-.18.2,3.68,3.68,0,0,0-.32.37.53.53,0,0,0-.11.48.2.2,0,0,0,.09.16.28.28,0,0,1,.1.09.78.78,0,0,1,.1.15,11.31,11.31,0,0,0,1.54,1.77l.94.89a6.73,6.73,0,0,0,.71.59,2.94,2.94,0,0,0,.66.39.61.61,0,0,0,.66-.07l.69-.52a15.41,15.41,0,0,0,1.84-1.68c.11-.12.23-.24.33-.37s.39-.51.58-.77.22-.33.33-.5A.33.33,0,0,0,10.07,11.37Z"/><path class="cls-1" d="M41.68,18.57h-.85a.31.31,0,0,1,0-.08V4.81a.5.5,0,0,1,0-.21,2,2,0,0,1,.42,0h.42a.29.29,0,0,1,0,.09.41.41,0,0,1,0,.11V18.37A.69.69,0,0,1,41.68,18.57Z"/><path class="cls-1" d="M76.28,13.32a.2.2,0,0,0,0-.14v-1c0-.12,0-.17.17-.17h.16a.08.08,0,0,1,.08.07v1.66a.53.53,0,0,1,0,.13.13.13,0,0,1-.12.12h-.32a.2.2,0,0,1-.13-.08l-.09-.13-.6-1.08,0-.05s0,.06,0,.09v1.17a.08.08,0,0,1-.07.08A.45.45,0,0,1,75,14,.08.08,0,0,1,75,14V12.29a.49.49,0,0,1,0-.12.13.13,0,0,1,.13-.12,1.93,1.93,0,0,1,.34,0,.22.22,0,0,1,.16.09l.08.12.55,1Z"/><path class="cls-1" d="M45.67,12.66c0,.05,0,.07,0,.1v1.11c0,.13,0,.16-.17.17a.55.55,0,0,1-.18,0s-.06,0-.06-.07v-.1c0-.52,0-1,0-1.56a.33.33,0,0,1,0-.1.14.14,0,0,1,.14-.14,1.71,1.71,0,0,1,.32,0,.2.2,0,0,1,.17.09l.08.12c.19.34.38.67.56,1l0,.05s0-.06,0-.09v-1.1s0-.08.07-.08a2.62,2.62,0,0,1,.28,0,.07.07,0,0,1,.06.07v1.79a.13.13,0,0,1-.11.11.87.87,0,0,1-.36,0,.31.31,0,0,1-.11-.09.46.46,0,0,1-.09-.15l-.62-1.09Z"/><path class="cls-1" d="M53.91,10.1V9c0-.13,0-.18.18-.18h.16s.06,0,.07.08v1.77a.13.13,0,0,1-.11.12.83.83,0,0,1-.35,0,.32.32,0,0,1-.12-.08l-.09-.14L53,9.5l0,0c-.05,0,0,0,0,.07v1.2a.1.1,0,0,1-.07.08.66.66,0,0,1-.28,0s-.06,0-.07-.09V9a.15.15,0,0,1,.15-.15H53a.22.22,0,0,1,.19.1l.07.11.56,1,0,.06Z"/><path class="cls-1" d="M64,9.44a1.1,1.1,0,0,0,0,.25v1.08a.19.19,0,0,1-.14.06.59.59,0,0,1-.25,0,.29.29,0,0,1,0-.16V9a.14.14,0,0,1,.15-.14H64a.24.24,0,0,1,.18.1.41.41,0,0,1,.07.11l.56,1,0,0s0,0,0-.08V8.92c0-.05,0-.08.08-.08h.26c.05,0,.07,0,.07.09a.28.28,0,0,1,0,.09v1.56a.34.34,0,0,1,0,.1.14.14,0,0,1-.12.14h-.32a.2.2,0,0,1-.14-.08l-.08-.13c-.21-.36-.41-.72-.61-1.08Z"/><path class="cls-1" d="M62.33,12a2,2,0,0,1,.35.05.72.72,0,0,1,.57.53,1.56,1.56,0,0,1,0,.83.85.85,0,0,1-.69.63,1.3,1.3,0,0,1-.65,0,.71.71,0,0,1-.55-.53,1.41,1.41,0,0,1,0-.79.86.86,0,0,1,.81-.68h.17Zm.51,1.06a2,2,0,0,0-.06-.39.39.39,0,0,0-.26-.27l-.2,0a.47.47,0,0,0-.51.39,1.26,1.26,0,0,0,0,.58.42.42,0,0,0,.43.36h.09a.47.47,0,0,0,.45-.35A2.07,2.07,0,0,0,62.84,13.06Z"/><path class="cls-1" d="M58.68,9.74l.09,0a.52.52,0,0,1,.11.8.85.85,0,0,1-.19.14.81.81,0,0,1-.34.08h-.71c-.12,0-.16,0-.16-.16V9.06c0-.2,0-.23.22-.23h.57a.84.84,0,0,1,.35.07.46.46,0,0,1,.24.6,1,1,0,0,1-.08.14A1,1,0,0,1,58.68,9.74Zm-.74.73a.86.86,0,0,0,.32,0h.1a.24.24,0,0,0,.19-.22.24.24,0,0,0-.16-.25l-.15,0h-.31v.4S57.94,10.44,57.94,10.47Zm0-.84a.73.73,0,0,0,.33,0,.22.22,0,0,0,.17-.24.2.2,0,0,0-.18-.2.81.81,0,0,0-.31,0A1.38,1.38,0,0,0,57.94,9.63Z"/><path class="cls-1" d="M48.65,9.83V9a.12.12,0,0,1,.11-.11h.7a1.13,1.13,0,0,1,.32.05.8.8,0,0,1,.61.72,1.18,1.18,0,0,1,0,.53.79.79,0,0,1-.57.61.94.94,0,0,1-.29.06h-.75a.12.12,0,0,1-.11-.12V9.83Zm.47.63a1.15,1.15,0,0,0,.37,0,.48.48,0,0,0,.41-.37,1,1,0,0,0,0-.51.49.49,0,0,0-.38-.38,1.22,1.22,0,0,0-.33,0h-.08C49.1,9.33,49.1,10.31,49.12,10.46Z"/><path class="cls-1" d="M53.45,13.11a.94.94,0,0,1,.28.42c.05.11.1.21.14.32a.21.21,0,0,1,0,.16.74.74,0,0,1-.39,0,.1.1,0,0,1-.08-.08l-.15-.34-.08-.17a.31.31,0,0,0-.38-.2.29.29,0,0,0,0,.09v.54c0,.14,0,.15-.15.17a.91.91,0,0,1-.23,0c-.06,0-.07,0-.07-.09a.28.28,0,0,1,0-.09V12.26a.34.34,0,0,1,0-.1c0-.07,0-.11.11-.11h.72a.8.8,0,0,1,.3.06.48.48,0,0,1,.33.43.52.52,0,0,1-.25.51Zm-.65-.22a1.13,1.13,0,0,0,.32,0,.21.21,0,0,0,.11,0,.26.26,0,0,0,.1-.24.2.2,0,0,0-.16-.19.7.7,0,0,0-.38,0A4,4,0,0,0,52.8,12.89Z"/><path class="cls-1" d="M60.57,9.9l0,.06a.79.79,0,0,1,.14.18c.09.17.16.34.24.52s0,.16-.1.17h-.25a.14.14,0,0,1-.12-.09c-.05-.12-.09-.23-.14-.34l-.09-.18c-.09-.17-.17-.21-.38-.18,0,0,0,.07,0,.11v.52c0,.12,0,.14-.14.16a.57.57,0,0,1-.26,0,.06.06,0,0,1,0-.06.34.34,0,0,1,0-.1V9a.38.38,0,0,1,0-.1c0-.06,0-.09.1-.1h.73a.81.81,0,0,1,.31.06.46.46,0,0,1,.31.43.49.49,0,0,1-.24.51l-.05,0Zm-.64-.23a.65.65,0,0,0,.31,0l.12-.05a.25.25,0,0,0-.06-.42.7.7,0,0,0-.38,0A1.45,1.45,0,0,0,59.93,9.67Z"/><path class="cls-1" d="M67.37,13.11l.06.06a1.18,1.18,0,0,1,.13.18c.09.17.17.35.24.52s0,.16-.1.17a2.08,2.08,0,0,1-.25,0,.14.14,0,0,1-.12-.1c0-.11-.09-.22-.14-.33l-.09-.19c-.09-.16-.17-.2-.38-.17,0,0,0,.06,0,.09v.59c0,.07,0,.08-.1.1a.71.71,0,0,1-.29,0s-.06,0-.06-.09a.25.25,0,0,1,0-.08V12.25a.34.34,0,0,1,0-.1.12.12,0,0,1,.1-.1h.73a.73.73,0,0,1,.3.06.46.46,0,0,1,.32.41.51.51,0,0,1-.23.53l-.06,0Zm-.66-.72a4.13,4.13,0,0,0,0,.5H67l.07,0a.24.24,0,0,0,.15-.25.22.22,0,0,0-.19-.21A1,1,0,0,0,66.71,12.39Z"/><path class="cls-1" d="M71,13.2c0,.06,0,.1,0,.15V14a.07.07,0,0,1-.06.07.62.62,0,0,1-.33,0A.07.07,0,0,1,70.5,14V12.22c0-.15,0-.18.17-.18a.81.81,0,0,1,.22,0,.07.07,0,0,1,.06.07v.57s0,.06,0,.1a.62.62,0,0,0,.23,0h.49a.44.44,0,0,0,0-.1V12.2c0-.14,0-.16.15-.16a.89.89,0,0,1,.23,0s.07,0,.07.08V13.9c0,.1,0,.12-.11.14a.67.67,0,0,1-.28,0A.07.07,0,0,1,71.7,14v-.6s0-.09,0-.14a.53.53,0,0,0-.25,0h-.23A1.07,1.07,0,0,0,71,13.2Z"/><path class="cls-1" d="M68.16,9.58a3.42,3.42,0,0,0,.72,0s0-.06,0-.09,0-.34,0-.51,0-.15.15-.16h.24s.06,0,.07.08v1.86a.51.51,0,0,1-.4,0,.13.13,0,0,1,0-.07.31.31,0,0,1,0-.1V10a.53.53,0,0,0-.25,0h-.23a1,1,0,0,0-.24,0,.27.27,0,0,0,0,.15v.6a.07.07,0,0,1-.06.07.62.62,0,0,1-.33,0,.08.08,0,0,1-.06-.08.28.28,0,0,1,0-.09c0-.54,0-1.08,0-1.62,0-.16,0-.19.19-.19h.18c.07,0,.09,0,.09.11v.39A2.09,2.09,0,0,0,68.16,9.58Z"/><path class="cls-1" d="M70,12.77v.51a.91.91,0,0,1,0,.23.65.65,0,0,1-.4.48,1.26,1.26,0,0,1-.47.08,1.14,1.14,0,0,1-.33-.05.65.65,0,0,1-.49-.56,1.34,1.34,0,0,1,0-.2c0-.35,0-.69,0-1,0-.16,0-.18.18-.18a.69.69,0,0,1,.2,0s.07,0,.07.08v1.09a.83.83,0,0,0,0,.22.31.31,0,0,0,.24.24.42.42,0,0,0,.27,0,.35.35,0,0,0,.28-.31.92.92,0,0,0,0-.16v-1c0-.14,0-.17.16-.17a.81.81,0,0,1,.22,0s.06,0,.07.08v.64Z"/><path class="cls-1" d="M44.71,12.76v.51a.81.81,0,0,1,0,.16.68.68,0,0,1-.54.6,1.42,1.42,0,0,1-.68,0,.63.63,0,0,1-.49-.57,1.1,1.1,0,0,1,0-.18v-1c0-.16,0-.18.18-.18a.74.74,0,0,1,.21,0s.06,0,.07.07v1.09a1.64,1.64,0,0,0,0,.22.35.35,0,0,0,.25.26.66.66,0,0,0,.28,0,.35.35,0,0,0,.27-.31.85.85,0,0,0,0-.16c0-.33,0-.67,0-1,0-.15,0-.18.18-.18a.69.69,0,0,1,.2,0s.07,0,.08.09v.62Z"/><path class="cls-1" d="M61.81,10.39a1.12,1.12,0,0,1-.05.13c0,.07,0,.15-.08.22a.11.11,0,0,1-.09.08.71.71,0,0,1-.29,0s-.07,0-.06-.1l0-.11c.21-.54.41-1.09.61-1.64l0-.08A.09.09,0,0,1,62,8.84h.42a.08.08,0,0,1,.09.06.36.36,0,0,1,0,.09c.2.54.4,1.07.59,1.6a.78.78,0,0,1,0,.14.07.07,0,0,1-.06.09.87.87,0,0,1-.36,0s0,0-.06-.08a1.43,1.43,0,0,1-.08-.22.5.5,0,0,1,0-.13A4.82,4.82,0,0,0,61.81,10.39Zm.64-.36c-.09-.25-.16-.48-.26-.72a1.34,1.34,0,0,0-.14.36,1.37,1.37,0,0,0-.11.36h.51Z"/><path class="cls-1" d="M78.41,13.59a6.07,6.07,0,0,0-.75,0,.39.39,0,0,0,0,.09c0,.06,0,.12-.07.19s-.07.16-.23.16a.4.4,0,0,1-.11,0c-.12,0-.14,0-.11-.16s0,0,0,0l.62-1.67s0,0,0-.05a.11.11,0,0,1,.1-.08h.41a.11.11,0,0,1,.09.07.36.36,0,0,0,0,.09c.19.53.39,1.07.59,1.6A.83.83,0,0,1,79,14,.07.07,0,0,1,79,14a.73.73,0,0,1-.36,0s0,0-.06,0-.06-.15-.08-.22Zm-.63-.36a.5.5,0,0,0,.17,0h.16c.06,0,.12,0,.18,0l0-.09-.21-.58a0,0,0,0,0,0,0h0s0,0,0,0c-.07.2-.15.41-.22.62Z"/><path class="cls-1" d="M72.7,12.77v-.54a.34.34,0,0,1,0-.1c0-.05,0-.07.07-.08a.76.76,0,0,1,.3,0,.07.07,0,0,1,.07.07.66.66,0,0,1,0,.14v.91a1.48,1.48,0,0,0,0,.21.33.33,0,0,0,.29.31.5.5,0,0,0,.21,0,.34.34,0,0,0,.3-.32,1.28,1.28,0,0,0,0-.19v-1c0-.17,0-.19.18-.19a.66.66,0,0,1,.2,0,.07.07,0,0,1,.07.07v1.15a1.15,1.15,0,0,1,0,.26A.64.64,0,0,1,74,14a1.34,1.34,0,0,1-.48.08,2,2,0,0,1-.34-.05.66.66,0,0,1-.47-.59c0-.06,0-.12,0-.18Z"/><path class="cls-1" d="M46.37,9.56V8.92a.09.09,0,0,1,.07-.08.81.81,0,0,1,.31,0,.07.07,0,0,1,.07.07v.14c0,.3,0,.61,0,.91a1.48,1.48,0,0,0,0,.21.35.35,0,0,0,.29.32h.2a.34.34,0,0,0,.31-.32,1.21,1.21,0,0,0,0-.19V9c0-.18,0-.19.19-.19a.55.55,0,0,1,.18,0s.07,0,.08.08v1.14a1.15,1.15,0,0,1,0,.26.63.63,0,0,1-.41.46,1.26,1.26,0,0,1-.47.08l-.3,0a.65.65,0,0,1-.51-.63.13.13,0,0,1,0-.06V9.56Z"/><path class="cls-1" d="M49.34,13.52a.78.78,0,0,1,0-.14c.12-.38.25-.76.38-1.14l0-.1a.13.13,0,0,1,.12-.1h.25a.08.08,0,0,1,.08.11.3.3,0,0,1,0,.1l-.57,1.62c-.06.16-.08.17-.25.17a1.92,1.92,0,0,1-.24,0,.18.18,0,0,1-.17-.13c0-.16-.11-.31-.16-.46l-.42-1.18a.83.83,0,0,1,0-.15.05.05,0,0,1,0-.07,1.29,1.29,0,0,1,.34,0,.09.09,0,0,1,.07.06.42.42,0,0,1,0,.1c.13.39.26.79.4,1.19a1.12,1.12,0,0,0,.05.13Z"/><path class="cls-1" d="M51.3,9.19V9.6l.09,0h.5a.09.09,0,0,1,.09.09,1.08,1.08,0,0,1,0,.18.1.1,0,0,1-.08.07h-.59a4,4,0,0,0,0,.49H52c.08,0,.1,0,.11.1a.17.17,0,0,1,0,.07c0,.17,0,.17-.17.17h-.89c-.15,0-.21,0-.21-.2,0-.53,0-1.06,0-1.59,0,0,0,0,0-.06s0-.13.13-.14h1.08a.37.37,0,0,1,0,.27.1.1,0,0,1-.07.07H51.3Z"/><path class="cls-1" d="M51.08,13.18a1.59,1.59,0,0,0,0,.49h.7c.06,0,.08,0,.09.09a.19.19,0,0,1,0,.08c0,.17,0,.17-.17.17h-.89c-.19,0-.21-.06-.2-.2V12.15a.12.12,0,0,1,.11-.1h1c.13,0,.15,0,.15.16v0c0,.13,0,.16-.16.16h-.62a.41.41,0,0,0,0,.22.57.57,0,0,0,0,.22h.55c.08,0,.11,0,.11.11a.33.33,0,0,1,0,.14.09.09,0,0,1-.1.09h-.4A.42.42,0,0,0,51.08,13.18Z"/><path class="cls-1" d="M43.6,8.8a1,1,0,0,1,.39.07c.09,0,.14.09.13.19a.76.76,0,0,1,0,.15.06.06,0,0,1-.09,0l-.12,0a.63.63,0,0,0-.33-.06l-.11,0a.17.17,0,0,0-.05.29.38.38,0,0,0,.15.09,1.36,1.36,0,0,0,.21.1l.21.1a.57.57,0,0,1,0,.95l-.2.11a1.1,1.1,0,0,1-.76,0l-.09,0a.15.15,0,0,1-.09-.14.43.43,0,0,1,0-.16c0-.08,0-.11.13-.08l.1.06a.84.84,0,0,0,.41.08.34.34,0,0,0,.17-.05.19.19,0,0,0,0-.32,1,1,0,0,0-.18-.1l-.22-.1a1.07,1.07,0,0,1-.21-.13.54.54,0,0,1,.1-.91A.82.82,0,0,1,43.6,8.8Z"/><path class="cls-1" d="M54.92,12a1,1,0,0,1,.33.05c.15.06.17.09.17.25a.37.37,0,0,1,0,.11.06.06,0,0,1-.09.05l-.12-.05a.58.58,0,0,0-.34-.06.24.24,0,0,0-.12,0,.17.17,0,0,0,0,.27l.12.09.24.11.22.11a.56.56,0,0,1,.06.91.89.89,0,0,1-.25.14,1.2,1.2,0,0,1-.75,0l-.08,0a.2.2,0,0,1-.11-.18.52.52,0,0,1,0-.17s0-.06.09,0l.1,0a.84.84,0,0,0,.44.1l.15,0a.2.2,0,0,0,0-.34l-.17-.09-.2-.09-.18-.09a.54.54,0,0,1-.25-.52.51.51,0,0,1,.36-.47A.87.87,0,0,1,54.92,12Z"/><path class="cls-1" d="M65.73,9.85a1.23,1.23,0,0,1,.09-.5.86.86,0,0,1,.76-.54.94.94,0,0,1,.41,0l.12,0c.19.07.21.21.16.41a.06.06,0,0,1-.08,0l-.11-.06a.6.6,0,0,0-.39-.1.46.46,0,0,0-.35.2.45.45,0,0,0-.06.12,1.06,1.06,0,0,0,0,.68.44.44,0,0,0,.4.31.76.76,0,0,0,.42-.09l.12-.06a.05.05,0,0,1,.07,0,.39.39,0,0,1,0,.3.24.24,0,0,1-.09.08l-.27.09a1.14,1.14,0,0,1-.58,0,.76.76,0,0,1-.51-.46A1.23,1.23,0,0,1,65.73,9.85Z"/><path class="cls-1" d="M59.36,12.83s0-.08.06-.11c.09-.19.18-.38.26-.57a.17.17,0,0,1,.18-.11h.27s.06,0,0,.08l-.06.13-.47.89a.48.48,0,0,0-.07.29v.41a.38.38,0,0,1,0,.1.07.07,0,0,1,0,.07.65.65,0,0,1-.34,0,.09.09,0,0,1-.06-.07v-.57a.54.54,0,0,0,0-.21c-.17-.3-.33-.61-.5-.92a.58.58,0,0,1,0-.14,0,0,0,0,1,0-.06,1.09,1.09,0,0,1,.36,0,.08.08,0,0,1,.07,0,.2.2,0,0,1,0,.09l.27.57Z"/><path class="cls-1" d="M64.91,12.05a.37.37,0,0,1,0,.29.08.08,0,0,1-.08.05h-.51a.17.17,0,0,0-.12,0,1.76,1.76,0,0,0,0,.46h.56c.08,0,.11,0,.12.11a.3.3,0,0,1,0,.24h-.51a.17.17,0,0,0-.13,0,.53.53,0,0,0,0,.13v.5c0,.09,0,.11-.11.12a.61.61,0,0,1-.27,0,.11.11,0,0,1-.08-.1V12.27a.37.37,0,0,1,0-.11.11.11,0,0,1,.12-.11h1Z"/><path class="cls-1" d="M56.79,12.05H58.2c.15,0,.17,0,.17.18h0c0,.14,0,.17-.16.17h-.4a.31.31,0,0,0,0,.16v1.26c0,.05,0,.1,0,.15a.18.18,0,0,1-.15.06l-.23,0s-.07,0-.07-.08V12.42l-.11,0h-.35c-.09,0-.11,0-.12-.11A.3.3,0,0,1,56.79,12.05Z"/><path class="cls-1" d="M55.69,9.2v1.47c0,.13,0,.14-.15.16a.81.81,0,0,1-.22,0c-.07,0-.08,0-.09-.11V9.22a.22.22,0,0,0-.15,0h-.31c-.08,0-.1,0-.11-.11a.15.15,0,0,1,0-.07c0-.15,0-.18.18-.18h1.28c.14,0,.16,0,.16.16V9c0,.19,0,.18-.18.18h-.4Z"/><path class="cls-1" d="M45,9.19h-.48a.06.06,0,0,1-.06,0,.38.38,0,0,1,0-.29h1.41c.13,0,.16,0,.16.17s0,.19-.18.19h-.37a.23.23,0,0,0,0,.16v1.38a.07.07,0,0,1-.06.07.62.62,0,0,1-.33,0,.09.09,0,0,1-.06-.06V9.37A.31.31,0,0,0,45,9.19Z"/><path class="cls-1" d="M56,13v-.78a.31.31,0,0,1,0-.1c0-.07,0-.1.08-.1a1.4,1.4,0,0,1,.29,0c.06,0,.08,0,.08.1v1.73c0,.12,0,.14-.13.16A.57.57,0,0,1,56,14,.07.07,0,0,1,56,14a.49.49,0,0,1,0-.12Z"/><path class="cls-1" d="M47.55,12.08l.06,0a.76.76,0,0,1,.3,0c.06,0,.08,0,.09.08v1.72c0,.15,0,.18-.19.19a.75.75,0,0,1-.21,0s-.05,0-.06-.07V12.22C47.54,12.17,47.55,12.12,47.55,12.08Z"/><path class="cls-1" d="M8.8,16.06a.77.77,0,0,1-.18.51.47.47,0,0,1-.73,0A.71.71,0,0,1,7.71,16a.61.61,0,0,1,.45-.5.41.41,0,0,1,.19,0A.57.57,0,0,1,8.8,16.06ZM8,16.48H8s0,.05,0,.06a.36.36,0,0,0,.47,0,.62.62,0,0,0,.14-.19.7.7,0,0,0,0-.43.32.32,0,0,0-.28-.27H8.13a.32.32,0,0,0-.29.27.76.76,0,0,0,0,.45A.14.14,0,0,0,8,16.48Z"/><path class="cls-1" d="M5.77,7.38a.55.55,0,0,1,.28.06l.23.12A3.35,3.35,0,0,1,7,8.1c.37.34.73.68,1.07,1A14.18,14.18,0,0,1,9.58,11a.76.76,0,0,0,.11.14.72.72,0,0,1,.12.23.28.28,0,0,1-.06.29l-.51.6a19,19,0,0,1-2.43,2.48l-.16.11L6.38,15l-.24.16a1,1,0,0,1-.23.11.52.52,0,0,1-.49-.1,15.24,15.24,0,0,1-1.23-1c-.65-.6-1.27-1.25-1.86-1.91l-.15-.16L2,11.85a1.14,1.14,0,0,1-.17-.51.36.36,0,0,1,0-.17A.71.71,0,0,1,1.93,11a4.07,4.07,0,0,1,.41-.61A15,15,0,0,1,3.42,9.23a19.52,19.52,0,0,1,2-1.69l.13-.09A.42.42,0,0,1,5.77,7.38Zm2,3.41v0l-.07,0-.56-.16a1.57,1.57,0,0,0-.3-.05.14.14,0,0,0-.09,0,.31.31,0,0,0,0,.1c0,.09.07.17.11.26a.08.08,0,0,0,.08,0h.22a.86.86,0,0,1,.27.05.45.45,0,0,1,.2.16.24.24,0,0,1,0,.35l-.09.07-.16.13a.56.56,0,0,1-.17.09A4.73,4.73,0,0,1,5.92,12a7.47,7.47,0,0,1-1.15-.07.45.45,0,0,1-.22-.08,1.37,1.37,0,0,0-.2-.13l-.16-.14a.42.42,0,0,1-.08-.12.14.14,0,0,1,0-.14A.49.49,0,0,1,4.34,11,1,1,0,0,1,4.52,11l.38-.1s.09,0,.13-.06a2,2,0,0,0-.53-.4l-.39.15L4,10.59l-.25.14-.28.17a.53.53,0,0,0-.22.34.2.2,0,0,0,0,.17,1,1,0,0,0,.34.39A1.53,1.53,0,0,0,4,12a4.77,4.77,0,0,0,1.5.25,7.83,7.83,0,0,0,1.81-.17l.11,0,.38-.27a.81.81,0,0,0,.25-.3.23.23,0,0,0,0-.31A1.37,1.37,0,0,0,7.86,11l-.22-.15s0,0,0,0Zm-2-2.6,0,.07c0,.11-.08.22-.11.33-.13.47-.25.94-.38,1.41a.19.19,0,0,0,0,.08c.13.06.26,0,.39.06a.66.66,0,0,1,0,.14c0,.31,0,.62-.07.93s0,.36,0,.54a.22.22,0,0,0,0,.14,2.08,2.08,0,0,0,.46,0l.07,0a.55.55,0,0,0,0-.18V10.28s0-.1,0-.16h.3l.08,0,0-.1-.27-.76c-.11-.3-.21-.59-.31-.88A.27.27,0,0,0,5.74,8.19Zm-.41,5.92.07,0h.7l.07,0L6,12.34c-.07-.05-.13,0-.2,0H5.66c-.06,0-.13,0-.19,0s0,.29,0,.43,0,.3,0,.45,0,.29,0,.44S5.36,14,5.33,14.11Z"/><path class="cls-1" d="M8,16.48c0-.21,0-.43,0-.65l.08,0h.29c.14,0,.19.08.14.2a.33.33,0,0,1-.07.13l0,.07,0,.11.05.12c-.06,0-.08,0-.11,0l-.09-.18s0-.06-.08-.06-.11,0-.11.08a1.09,1.09,0,0,1,0,.18l-.1,0Zm.26-.56h-.1s0,0-.05.06,0,.07,0,.07a.37.37,0,0,0,.21,0,.07.07,0,0,0,0-.08s0-.05-.06-.06Z"/></g></g></svg>