<svg xmlns="http://www.w3.org/2000/svg" viewBox="0 0 22.26 21"><defs><style>.cls-1{fill:#fff;}</style></defs><title>society3</title><g id="Layer_2" data-name="Layer 2"><g id="Layer_1-2" data-name="Layer 1"><path class="cls-1" d="M4.59,0H22.26a.45.45,0,0,0,0,.11A4.23,4.23,0,0,1,22,1a2.42,2.42,0,0,1-1.59,1.48,3.86,3.86,0,0,1-.82.17,8.3,8.3,0,0,1-1.41,0H18a.81.81,0,0,0,0,.15V8.71a3.94,3.94,0,0,1-.44,1.78,3.57,3.57,0,0,1-2.1,1.75,5.66,5.66,0,0,1-.59.15,1.57,1.57,0,0,1-.53,0,.29.29,0,0,1,0-.09V2.74l-.09,0H8.16a.17.17,0,0,0,0,0v2s0,0,0,.06h5.21a.43.43,0,0,1,0,.11V7.55H8.14a.25.25,0,0,0,0,.08v2H13.4a.35.35,0,0,1,0,.17v2.37s0,.1,0,.16H4.6a.38.38,0,0,1,0-.1.57.57,0,0,1,0-.13V0Z"/><path class="cls-1" d="M3.59,12.39c-.18,0-2.68,0-3.45,0H0a2.28,2.28,0,0,1,0-.26,1.94,1.94,0,0,1,0-.24V3.74A4.17,4.17,0,0,1,.22,2.38a3.43,3.43,0,0,1,2-2.09A4.33,4.33,0,0,1,3.52,0h.06s0,.06,0,.09v12.3Z"/><path class="cls-1" d="M12.83,13.8h.51a.3.3,0,0,1,0,.16v2.39a2.13,2.13,0,0,1-.61,0c-.17-.3-.33-.61-.51-.91s-.32-.61-.48-.93a1.15,1.15,0,0,0,0,.26c0,.09,0,.17,0,.26s0,.17,0,.26v.79a2.09,2.09,0,0,1,0,.25,1.79,1.79,0,0,1-.52,0s0,0,0-.05V13.83l0,0h.65l.49.87a8.39,8.39,0,0,1,.45.9.49.49,0,0,0,0-.21c0-.08,0-.15,0-.23a1.48,1.48,0,0,0,0-.21V13.8Z"/><path class="cls-1" d="M6,13.8c.2,0,.38,0,.56,0a1.07,1.07,0,0,1,0,.25v.47a2.18,2.18,0,0,0,0,.25.65.65,0,0,0,.24,0h.47a.59.59,0,0,0,.23,0,1.77,1.77,0,0,0,0-.32v-.63a2.36,2.36,0,0,1,.55,0s0,.09,0,.13c0,.37,0,.74,0,1.11v1.14c0,.06,0,.11,0,.17a.71.71,0,0,1-.29,0H7.55a1.46,1.46,0,0,1,0-.36c0-.12,0-.23,0-.35s0-.23,0-.35l-.09,0H6.58c0,.18,0,.36,0,.53v.52a.71.71,0,0,1-.29,0H6a.35.35,0,0,1,0-.17V13.92S6,13.85,6,13.8Z"/><path class="cls-1" d="M5.12,20.94a2.62,2.62,0,0,1-.56,0s0-.07,0-.11v-.94a1.07,1.07,0,0,0-.25,0H3.83a.91.91,0,0,0-.23,0,1.15,1.15,0,0,0,0,.26v.53a1.24,1.24,0,0,1,0,.27c-.18,0-.36,0-.54,0a.19.19,0,0,1,0-.14V18.55a.61.61,0,0,1,0-.14,1.79,1.79,0,0,1,.57,0c0,.1,0,.21,0,.32V19c0,.11,0,.22,0,.32l.06,0h.88s0-.08,0-.11v-.71c0-.05,0-.1,0-.15a2.62,2.62,0,0,1,.56,0s0,.05,0,.08v2.36A.34.34,0,0,1,5.12,20.94Z"/><path class="cls-1" d="M2.54,15.15a.81.81,0,0,1,.34.51l.18.66v0a2.69,2.69,0,0,1-.57,0,.37.37,0,0,1-.05-.11c0-.16-.09-.32-.13-.47a1.87,1.87,0,0,0-.07-.22.32.32,0,0,0-.25-.2H1.72s0,.08,0,.12v.73a.38.38,0,0,1,0,.15,2,2,0,0,1-.55,0,.13.13,0,0,1,0-.06c0-.35,0-2.34,0-2.46l.15,0,.69,0a1.63,1.63,0,0,1,.45.06.87.87,0,0,1,.24.1.56.56,0,0,1,.27.35.69.69,0,0,1-.31.82Zm-.81-.23a1.09,1.09,0,0,0,.36,0l.18-.08a.34.34,0,0,0,.13-.35.3.3,0,0,0-.22-.25.77.77,0,0,0-.45,0A3.17,3.17,0,0,0,1.73,14.92Z"/><path class="cls-1" d="M16.43,21h-.56a.4.4,0,0,1-.08-.16l-.12-.46c0-.06,0-.13-.07-.2a.29.29,0,0,0-.28-.19h-.21s0,.08,0,.12v.73a.38.38,0,0,1,0,.15,2,2,0,0,1-.54,0h0V18.46a.08.08,0,0,1,0,0l.07,0a5.5,5.5,0,0,1,.91,0,1.43,1.43,0,0,1,.41.09.61.61,0,0,1,.43.54.67.67,0,0,1-.3.67l-.13.08a.72.72,0,0,1,.32.46C16.3,20.44,16.36,20.68,16.43,21ZM15.09,19.5h.31a.66.66,0,0,0,.2-.06.31.31,0,0,0,.16-.21.33.33,0,0,0-.27-.43h0a.73.73,0,0,0-.36,0Z"/><path class="cls-1" d="M8.63,13.8h.55a.29.29,0,0,1,0,.18v1.2c0,.09,0,.19,0,.29a.71.71,0,0,0,.09.28.44.44,0,0,0,.74,0,1,1,0,0,0,.08-.29,2.44,2.44,0,0,0,0-.27V14a1,1,0,0,1,0-.17,2.6,2.6,0,0,1,.56,0s0,0,0,.08V15.3a1.27,1.27,0,0,1-.08.48.85.85,0,0,1-.7.6,1.42,1.42,0,0,1-.58,0,.83.83,0,0,1-.64-.52,1.56,1.56,0,0,1-.1-.57V13.88A.28.28,0,0,1,8.63,13.8Z"/><path class="cls-1" d="M3.39,13.8c.19,0,.37,0,.57,0v1.39c0,.1,0,.2,0,.3a.6.6,0,0,0,.06.19.38.38,0,0,0,.39.26.38.38,0,0,0,.4-.26.94.94,0,0,0,.06-.28,1.48,1.48,0,0,0,0-.21V13.82a.29.29,0,0,1,.18,0,.67.67,0,0,1,.2,0h.19s0,.07,0,.1v1.41a1.61,1.61,0,0,1-.08.48.85.85,0,0,1-.62.57,1.4,1.4,0,0,1-.76,0,.81.81,0,0,1-.52-.47,1.33,1.33,0,0,1-.12-.53v-1.5S3.39,13.83,3.39,13.8Z"/><path class="cls-1" d="M16,16.36a3,3,0,0,1-.6,0c-.08-.2-.13-.42-.2-.63a4.38,4.38,0,0,0-.74,0,.93.93,0,0,1,0,.13l-.12.44,0,.08h-.55a.13.13,0,0,1,0-.12c.18-.6.36-1.2.55-1.79.05-.18.11-.36.16-.54s0-.08,0-.11a5,5,0,0,1,.77,0c.26.83.52,1.67.77,2.51C16,16.33,16,16.34,16,16.36Zm-.92-1.09a.1.1,0,0,0,0,0c-.08-.31-.16-.61-.25-.91l0,0h0c-.08.27-.15.55-.23.83,0,0,0,.06,0,.09h0v0A2.08,2.08,0,0,0,15.08,15.27Z"/><path class="cls-1" d="M6.23,18.39H7c.06.13.54,1.63.78,2.46,0,0,0,.06,0,.09a2.49,2.49,0,0,1-.61,0c-.08-.21-.12-.43-.2-.63H6.24c-.08.21-.11.43-.19.63a2.81,2.81,0,0,1-.58,0v-.06C5.72,20.06,6,19.23,6.23,18.39Zm.64,1.45v0c-.08-.3-.17-.6-.25-.9,0,0,0,0,0,0h0l-.26,1A1.63,1.63,0,0,0,6.87,19.84Z"/><path class="cls-1" d="M13.06,20.48h1a.38.38,0,0,1,0,.23.89.89,0,0,1,0,.23L14,21c-.28,0-1.42,0-1.54,0s0-.1,0-.16V18.4c.14,0,.79,0,1.47,0h.11a3.53,3.53,0,0,1,0,.46h-.84a.24.24,0,0,0-.16,0,4.09,4.09,0,0,0,0,.49l.1,0H14a.25.25,0,0,1,0,.07v.39h-.93A2.84,2.84,0,0,0,13.06,20.48Z"/><path class="cls-1" d="M8.74,20.06c0,.29,0,.59,0,.87a1.92,1.92,0,0,1-.55,0,.3.3,0,0,1,0-.16V18.43s.06,0,.09,0a5.19,5.19,0,0,1,.88,0,1.91,1.91,0,0,1,.33.06.76.76,0,0,1,.55.74,1.13,1.13,0,0,1-.05.32.71.71,0,0,1-.32.4.93.93,0,0,1-.45.15C9,20.05,8.9,20.05,8.74,20.06Zm0-.48a.58.58,0,0,0,.32,0,1,1,0,0,0,.18-.07.41.41,0,0,0,.16-.42.33.33,0,0,0-.29-.28.77.77,0,0,0-.37,0A3.22,3.22,0,0,0,8.75,19.58Z"/><path class="cls-1" d="M2.66,18.46l-.11.45-.14,0a1.31,1.31,0,0,0-.52,0,.71.71,0,0,0-.63.61,1.06,1.06,0,0,0,0,.53.71.71,0,0,0,.57.51,1.23,1.23,0,0,0,.54,0l.15,0a2.21,2.21,0,0,1,.08.42c0,.06-.09.06-.13.08a2,2,0,0,1-1,0,1.15,1.15,0,0,1-.9-1.06,1.58,1.58,0,0,1,0-.53,1.21,1.21,0,0,1,.84-.93,1.77,1.77,0,0,1,1,0Z"/><path class="cls-1" d="M10.87,20.93c0-.16,0-.34,0-.51s0-.34,0-.51v-.5c0-.17,0-.35,0-.53H10.2a1.49,1.49,0,0,1,0-.47c.13,0,1.82,0,1.94,0a1.24,1.24,0,0,1,0,.47h-.65c-.05.05,0,.11,0,.16v1.84s0,0,0,.06A1.55,1.55,0,0,1,10.87,20.93Z"/></g></g></svg>