<svg xmlns="http://www.w3.org/2000/svg" viewBox="0 0 27.06 21"><defs><style>.cls-1{fill:#fff;}</style></defs><title>society2</title><g id="Layer_2" data-name="Layer 2"><g id="Layer_1-2" data-name="Layer 1"><path class="cls-1" d="M27.06,0a10.26,10.26,0,0,1-1.82.16,40.11,40.11,0,0,0-4.51.49c-.85.15-1.71.3-2.55.5A33.22,33.22,0,0,0,10.93,3.7c-.8.4-1.57.84-2.35,1.27a10.22,10.22,0,0,0-1,.65c-.66.48-1.27,1-1.89,1.56a13,13,0,0,0-2.78,3.27A7.87,7.87,0,0,0,1.8,15.28a7,7,0,0,0,1.56,3.61,10,10,0,0,0,2,1.88c.07.05.17.09.18.23a11.22,11.22,0,0,1-4.7-4.3A6.46,6.46,0,0,1,0,14.26,7.38,7.38,0,0,1,1.28,9.53,13.27,13.27,0,0,1,4.36,6.18,25,25,0,0,1,11,2.47,28.67,28.67,0,0,1,14.62,1.3c.88-.23,1.77-.43,2.67-.58C17.87.63,18.45.51,19,.41S19.92.3,20.37.23C21.1.11,21.86.16,22.59,0a.75.75,0,0,1,.21,0Z"/><path class="cls-1" d="M10.75,13.87l-2.31.63c-.45.13-.9.25-1.36.36-.14,0-.11.12-.1.22a5.49,5.49,0,0,0,1.59,3.43,7.39,7.39,0,0,0,.78.69c-.14.07-.2,0-.27-.08A6.84,6.84,0,0,1,6.2,16.17a4.4,4.4,0,0,1-.41-2.45A6.35,6.35,0,0,1,7.72,10a15.57,15.57,0,0,1,5.57-3.54A22.69,22.69,0,0,1,16,5.55c.75-.2,1.52-.34,2.28-.49a29.87,29.87,0,0,1,6.4-.42A33.65,33.65,0,0,0,20.89,5a27,27,0,0,0-6.82,2,15.58,15.58,0,0,0-5.46,3.91,9.86,9.86,0,0,0-1.09,1.63,4.44,4.44,0,0,0-.33.93c-.06.23,0,.3.23.31,1,0,1.92,0,2.88.06l.45,0Z"/><path class="cls-1" d="M18.21,14c-.44.17-.87.36-1.32.51s-.81.33-1.21.49-.14.51,0,.76a3.63,3.63,0,0,0,.5.93,3.49,3.49,0,0,0,1.66,1.24,1,1,0,0,1-.51-.08,4.23,4.23,0,0,1-3.22-3A4,4,0,0,1,14.2,13a4.67,4.67,0,0,1,1.28-2.13,4.34,4.34,0,0,1,1.65-.89,5.8,5.8,0,0,1,.92-.2c.19,0,.64-.17.63.13,0,.45,0,.91,0,1.36s-.49.28-.73.35A4,4,0,0,0,17,12a3.71,3.71,0,0,0-1,1c-.14.21-.62.89-.08.88H18.2Z"/><path class="cls-1" d="M22.38,17.56a2.28,2.28,0,0,0,.7-.75,1.38,1.38,0,0,0,.14-1,1.94,1.94,0,0,0-.53-.83c-.87-.89-2-1.47-2.86-2.4a2.69,2.69,0,0,1-.55-.86,1.41,1.41,0,0,1,0-1,1.81,1.81,0,0,1,1.22-.86,7.57,7.57,0,0,1,1.84-.27h.94c.28,0,.45,0,.47.3a3.65,3.65,0,0,1,0,1c0,.24-.23.19-.43.19H22.5a1.12,1.12,0,0,0-1.16.62.51.51,0,0,0-.06.27.54.54,0,0,0,.1.2,11.14,11.14,0,0,0,1.29,1.28,3.33,3.33,0,0,1,1,2.11,2.1,2.1,0,0,1-1.08,2A.6.6,0,0,1,22.38,17.56Z"/><path class="cls-1" d="M12.75,17.7a6.39,6.39,0,0,1-.23-1.29v0c0-.38-.11-.76-.16-1.13v0c-.09-.76-.72-4.67-.78-5.3,0-.17,0-.23.22-.23h1.87c.17,0,.25,0,.22.23-.15,1-.31,2.07-.45,3.11s-.28,1.83-.39,2.75C13,16.4,12.86,17,12.75,17.7Z"/><path class="cls-1" d="M23.22,20.12V19.6c0-.1,0-.2.12-.23a.26.26,0,0,1,.27.06,4,4,0,0,1,.44.57c0,.05.07.13.15.1s.05-.11.06-.17a1.13,1.13,0,0,0,0-.32c0-.18,0-.24.21-.24s.23.11.2.26a5.26,5.26,0,0,0,0,1c0,.09,0,.18-.08.22a.25.25,0,0,1-.27-.06c-.15-.16-.29-.33-.43-.5s-.08-.12-.16-.09-.05.11-.05.17,0,.19,0,.29,0,.21-.19.2-.22,0-.21-.2,0-.34,0-.51Z"/><path class="cls-1" d="M20,20.08v-.46c0-.16,0-.26.22-.26s.24.1.22.25.06.33.31.33.31-.08.28-.3,0-.3.25-.27a.16.16,0,0,1,.16.17,6.21,6.21,0,0,0,0,1.14c0,.12-.07.16-.17.15s-.24.06-.27-.12v-.12c0-.3-.21-.43-.49-.32s-.11.2-.1.3,0,.27-.2.26-.26-.07-.24-.26,0-.33,0-.49Z"/><path class="cls-1" d="M18.49,20.07c0-.2,0-.33,0-.45s0-.26.18-.24.25.06.23.25,0,.44,0,.66.1.22.26.23.16-.13.16-.24,0-.46,0-.69.07-.22.22-.23.22.06.22.21,0,.53,0,.8a.43.43,0,0,1-.5.46C18.44,20.82,18.48,20.77,18.49,20.07Z"/><path class="cls-1" d="M17.06,20.09c0-.09,0-.19,0-.28s-.06-.39.12-.43a1.07,1.07,0,0,1,1,.18.39.39,0,0,1,0,.55.29.29,0,0,0,0,.4c.06.09.18.21,0,.29a.28.28,0,0,1-.36-.07c-.09-.11-.12-.26-.2-.37a.11.11,0,0,0-.11-.07c-.06,0-.09.07-.09.13a.38.38,0,0,0,0,.15.38.38,0,0,1,0,.15.16.16,0,0,1-.1.08.21.21,0,0,1-.19,0c-.12-.05-.12-.18-.12-.29S17.06,20.23,17.06,20.09Zm.57,0c.12,0,.22,0,.21-.19s-.05-.24-.21-.24-.23.06-.23.2S17.45,20.08,17.63,20.07Z"/><path class="cls-1" d="M22.53,19.93c0-.11,0-.23,0-.34s0-.23.21-.23.24.05.23.21,0,.56,0,.83a.41.41,0,0,1-.44.43H22.4c-.66,0-.67,0-.68-.67,0-.19,0-.38,0-.57s0-.22.19-.22.21.07.21.23a5.2,5.2,0,0,0,0,.68c0,.21.15.24.32.23s.11-.17.12-.26a1.69,1.69,0,0,0,0-.32Z"/><path class="cls-1" d="M24.82,20.65c.15-.38.29-.79.47-1.19a.27.27,0,0,1,.46,0c.17.38.31.77.48,1.16.06.16,0,.22-.14.17a.64.64,0,0,1-.26-.1c-.3-.23-.38-.22-.65,0a.3.3,0,0,1-.28.09C24.79,20.83,24.85,20.74,24.82,20.65Zm.82-.48c0-.08,0-.17-.13-.18s-.13.1-.14.17.06.14.14.15S25.65,20.27,25.64,20.17Z"/></g></g></svg>